<?xml version="1.0" encoding="utf-8"?>
<!-- Generator: Adobe Illustrator 20.0.0, SVG Export Plug-In . SVG Version: 6.00 Build 0)  -->
<svg version="1.1" id="Layer_1" xmlns="http://www.w3.org/2000/svg" xmlns:xlink="http://www.w3.org/1999/xlink" x="0px" y="0px"
	 viewBox="0 0 388 82.8" style="enable-background:new 0 0 388 82.8;" xml:space="preserve">
<style type="text/css">
	.st0{fill:#FBFCFD;}
	.st1{fill:url(#SVGID_1_);}
	.st2{fill:url(#SVGID_2_);}
	.st3{fill:url(#SVGID_3_);}
	.st4{fill:url(#SVGID_4_);}
	.st5{fill:url(#SVGID_5_);}
	.st6{opacity:0.7;fill:#005F97;}
	.st7{fill:#FFFFFF;}
	.st8{fill:#6ECEF5;}
</style>
<g>
	<g>
		<g>
			<path class="st0" d="M327.4,52.9c0.1-0.1,0.3-0.1,0.4,0c0.1,0,0.1,0.1,0.1,0.2c0,0.3,0,0.5,0,0.8c0,4.4-4.3,5.4-7.8,5.4
				c-8.3,0-14.5-5.5-14.5-14c0-7.8,4.9-13.3,12.7-13.3c6.2,0,10.6,3.9,10.6,10.1c0,0.7,0,1.3-0.1,2l-16.3,2.3
				c0.6,4.8,3.8,8.1,9.3,8.1C323.6,54.4,325.8,54.1,327.4,52.9 M317.7,36.1c-3.8,0-5.1,2.8-5.4,6.3l9.7-1.5
				C322.1,38.3,320.7,36.1,317.7,36.1z"/>
			<path class="st0" d="M151.8,52.9c0.1-0.1,0.3-0.1,0.4,0c0.1,0,0.1,0.1,0.1,0.2c0,0.3,0,0.5,0,0.8c0,4.4-4.3,5.4-7.8,5.4
				c-8.3,0-14.5-5.5-14.5-14c0-7.8,4.9-13.3,12.7-13.3c6.2,0,10.6,3.9,10.6,10.1c0,0.7,0,1.3-0.1,2l-16.3,2.3
				c0.6,4.8,3.8,8.1,9.3,8.1C147.9,54.4,150.2,54.1,151.8,52.9 M142.1,36.1c-3.8,0-5.1,2.8-5.4,6.3l9.7-1.5
				C146.4,38.3,145,36.1,142.1,36.1z"/>
			<path class="st0" d="M306,53.8c0.1,0.2,0.1,0.7,0.1,1c0,3.4-3.7,4.5-6.4,4.5c-5.5,0-8.8-3.2-8.8-8.8v-13h-3v-4.8h3v-5.1h7.1v5.1
				h7v4.8h-7v12.7c0,2.7,1.6,4.3,4.3,4.3c1.1,0,2.4-0.3,3.2-0.9c0.1-0.1,0.2-0.1,0.3,0C306,53.6,306,53.7,306,53.8z"/>
			<path class="st0" d="M192.7,53.8c0,0.2,0.1,0.7,0.1,1c0,3.4-3.7,4.5-6.4,4.5c-5.5,0-8.8-3.2-8.8-8.8v-13h-3v-4.8h3v-5.1h7.1v5.1
				h7v4.8h-7v12.7c0,2.7,1.6,4.3,4.3,4.3c1.1,0,2.4-0.3,3.2-0.9c0.1-0.1,0.2-0.1,0.3,0C192.6,53.6,192.7,53.7,192.7,53.8z"/>
			<path class="st0" d="M329.6,36.2c0.3-2.5,2.5-3.8,4.9-3.8c2.8,0,4.8,1.7,4.8,4.7v1h0.1c2.1-3.1,4.2-6.1,8.1-6.1
				c0.4,0,0.8,0,1.2,0.1l-0.4,7c-0.7-0.2-1.4-0.3-2.2-0.3c-2.6,0-4.6,2.1-6.5,4v15.8h-7.1v-20c0-1.1-0.3-2.3-1.6-2.3
				c-0.3,0-0.7,0.1-1,0.2c-0.1,0-0.2,0-0.3,0C329.6,36.3,329.5,36.3,329.6,36.2z"/>
			<path class="st0" d="M376.2,54.8c0.1,0,0.2,0,0.2,0c0,0,0.1,0.1,0.1,0.2c-0.2,2.1-2,3.9-4.9,3.9c-3.3,0-5.2-2.2-5.2-5.7v-12
				c0-1.9-1.2-2.7-2.6-2.7c-2.6,0-4.8,2.5-6.3,4v16.1h-7.2V32.7h7v4.9h0.1c2.9-3.1,6-5.7,10.1-5.7c1.4,0,2.9,0.5,4,1.4
				c1.8,1.5,2,3.8,2,5.9v13.5c0,1.3,0.4,2.3,1.5,2.3C375.6,55,375.9,54.9,376.2,54.8z"/>
			<path class="st0" d="M268.6,53.1c1.7,1,3.8,1.5,6,1.5c2.4,0,4.2-0.8,4.2-2.8c0-1.7-1.7-2.6-4.1-3.8c-3.4-1.7-6.2-3.5-6.2-7.9
				c0-3.9,3.3-8.2,10.9-8.2c2.1,0,4,0.2,5.6,0.5l-0.8,4.9c-1.4-0.4-3.1-0.7-4.8-0.7c-2.6,0-4,1.1-4,2.5c0,1.6,1.9,2.6,4.3,3.8
				c3.2,1.6,6.3,3.4,6.3,7.8c0,3.5-2.7,8.4-10.7,8.4c-4.6,0-7.3-1.7-7.3-5.1c0-0.3,0-0.5,0-0.8c0-0.1,0.1-0.2,0.2-0.2
				C268.4,53.1,268.5,53.1,268.6,53.1z"/>
			<path class="st0" d="M155.3,53.1c1.7,1,3.8,1.5,6,1.5c2.4,0,4.2-0.8,4.2-2.8c0-1.7-1.7-2.6-4.2-3.8c-3.4-1.7-6.2-3.5-6.2-7.9
				c0-3.9,3.3-8.2,10.9-8.2c2.1,0,4,0.2,5.6,0.5l-0.8,4.9c-1.4-0.4-3.1-0.7-4.8-0.7c-2.6,0-4,1.1-4,2.5c0,1.6,1.9,2.6,4.3,3.8
				c3.2,1.6,6.3,3.4,6.3,7.8c0,3.5-2.7,8.4-10.7,8.4c-4.6,0-7.3-1.7-7.3-5.1c0-0.3,0-0.5,0-0.8c0-0.1,0.1-0.2,0.2-0.2
				C155.1,53.1,155.2,53.1,155.3,53.1z"/>
			<path class="st0" d="M265.1,52.9c0.1-0.1,0.3-0.1,0.4,0c0.1,0,0.1,0.1,0.1,0.2c0,0.3,0,0.5,0,0.8c0,4.4-4.3,5.4-7.8,5.4
				c-8.3,0-14.5-5.5-14.5-14c0-7.8,4.9-13.3,12.7-13.3c6.2,0,10.6,3.9,10.6,10.1c0,0.7,0,1.3-0.1,2l-16.3,2.3
				c0.6,4.8,3.8,8.1,9.3,8.1C261.3,54.4,263.5,54.1,265.1,52.9 M255.4,36.1c-3.8,0-5.1,2.8-5.4,6.3l9.7-1.5
				C259.8,38.3,258.4,36.1,255.4,36.1z"/>
			<path class="st0" d="M110.6,59c-3.2,0-6.7-0.3-9.9-0.9l-0.2,0V25.1l0.2,0c4.5-0.7,8.1-1.1,11.1-1.1h0c4.1,0,6.6,0.5,9.1,1.6
				c1.4,0.7,2.6,1.6,3.3,2.8c0.6,1,1,2.1,1,3.3c0,0.7-0.1,2.1-1.2,3.7c-0.9,1.4-2.2,2.5-3.9,3.3c1.1,0.3,2.3,0.7,3.2,1.2
				c1.7,0.9,3,2.2,3.7,3.7c0.7,1.4,1,3.1,0.8,5c-0.4,3.5-2.7,6.6-6.3,8.3c-2.1,1-4.6,1.6-7.5,1.8C112.9,58.9,111.7,59,110.6,59z
				 M108.4,54c0.8,0.2,1.9,0.3,2.9,0.3c2.7,0,4-0.6,5.1-1.2c1-0.6,1.8-1.5,2.4-2.6c0.5-1.1,0.8-2.4,0.6-3.6
				c-0.2-2.4-1.8-4.1-4.3-4.8c-0.8-0.2-1.8-0.4-2.9-0.4c-1.2,0-2.6,0.2-3.8,0.5V54z M108.4,28.7v10.3c3.7-0.3,5.5-1,7-2
				c1.6-1,2.5-2.5,2.6-4.1c0-0.9-0.2-1.7-0.8-2.4c-0.7-0.8-1.7-1.4-3.2-1.7c-0.8-0.2-1.8-0.3-2.9-0.3
				C110.2,28.5,109.2,28.6,108.4,28.7z"/>
			<path class="st0" d="M231.6,29.2c0.6-0.3,1-0.2,1.3-0.2c1.8,0.3,2.7,3.4,2.5,8.6c-0.1,2.5-0.6,6.3-1.8,9.6
				c-0.6,1.6-1.2,2.9-2,3.8c-0.8,1-1.7,1.5-2.6,1.5c0,0-0.1,0-0.1,0c-0.2,0-0.5,0-0.7-0.1l-4.1-27.8h-8.1l3.1,18.4
				c-0.2,1.3-0.7,3.7-1.7,5.8c-1,2.1-2.2,3.2-3.5,3.4c-0.2,0-0.5,0.1-0.9,0.1c-0.2,0-0.3,0-0.4,0l-4.1-27.7h-8.1l5.6,33.9l0.1,0
				c1,0.3,2.1,0.4,3.2,0.4c0.9,0,1.8-0.1,2.6-0.3c2-0.4,3.9-1.6,5.5-3.5c1.2-1.4,2.2-3.2,2.8-5l1.4,8.3l0.1,0
				c1.5,0.3,2.5,0.4,3.6,0.4c0.3,0,0.6,0,1,0c2.1,0,4-0.6,5.7-1.7c1.6-1,3.1-2.5,4.3-4.3c1.7-2.6,3-5.7,3.9-9.5
				c0.8-3.3,1.2-6.8,1.2-10.2c0-2.8-0.4-5-1.3-6.6c-1-1.8-2.5-2.7-4.4-2.7c-1.1,0-2.1,0.4-3,1.2c-0.6,0.6-1.5,1.7-1.6,3.7
				c0,0.1,0,0.2,0.1,0.3C231.4,29.3,231.5,29.3,231.6,29.2z"/>
		</g>
		<g>
			<path class="st0" d="M383.4,58.9c-1.9,0-3.4-1.5-3.4-3.5c0-2,1.4-3.5,3.4-3.5c1.9,0,3.3,1.5,3.3,3.5
				C386.7,57.4,385.3,58.9,383.4,58.9z M383.4,52.4c-1.6,0-2.8,1.3-2.8,3c0,1.7,1.2,3,2.8,3c1.6,0,2.8-1.3,2.8-3
				C386.2,53.7,384.9,52.4,383.4,52.4z M383.2,55.6c-0.2,0-0.4,0-0.5,0v2H382v-4.5c0.4,0,0.8,0,1.2,0c0.8,0,1.7,0.2,1.7,1.2
				c0,0.6-0.4,1-1,1.2c0.5,1,1,1.6,1.3,1.6c0,0,0.1,0,0.1,0l0,0c0,0,0,0,0,0.1c0,0.2-0.2,0.4-0.5,0.4
				C384.1,57.6,383.6,56.6,383.2,55.6z M383.1,53.5c-0.1,0-0.3,0-0.4,0v1.5c0.1,0,0.3,0,0.4,0c0.5,0,1-0.2,1-0.8
				C384.1,53.8,383.6,53.5,383.1,53.5z"/>
		</g>
	</g>
	<g>
		
			<radialGradient id="SVGID_1_" cx="25.5494" cy="19.6985" r="97.5356" gradientTransform="matrix(0.7275 -0.42 0.42 0.7275 34.3946 71.6943)" gradientUnits="userSpaceOnUse">
			<stop  offset="0" style="stop-color:#03508F"/>
			<stop  offset="0.2166" style="stop-color:#104A87"/>
			<stop  offset="0.5598" style="stop-color:#1F3C72"/>
			<stop  offset="0.5801" style="stop-color:#203B71"/>
			<stop  offset="1" style="stop-color:#1F3B70"/>
		</radialGradient>
		<circle class="st1" cx="41.5" cy="41.4" r="40.2"/>
		
			<radialGradient id="SVGID_2_" cx="25.6279" cy="-34.8862" r="58.1291" gradientTransform="matrix(-0.42 -0.7275 0.7639 -0.441 75.8 38.8108)" gradientUnits="userSpaceOnUse">
			<stop  offset="0.696" style="stop-color:#209AD6;stop-opacity:0"/>
			<stop  offset="0.9218" style="stop-color:#209AD6"/>
		</radialGradient>
		<circle class="st2" cx="41.5" cy="41.4" r="40.2"/>
		
			<radialGradient id="SVGID_3_" cx="25.6279" cy="-37.9336" r="63.4623" gradientTransform="matrix(0.7275 -0.42 0.42 0.7275 34.3956 71.6943)" gradientUnits="userSpaceOnUse">
			<stop  offset="0.81" style="stop-color:#2BACE2;stop-opacity:0"/>
			<stop  offset="0.93" style="stop-color:#2BACE2"/>
		</radialGradient>
		<circle class="st3" cx="41.5" cy="41.4" r="40.2"/>
		
			<linearGradient id="SVGID_4_" gradientUnits="userSpaceOnUse" x1="62.0514" y1="-72.8399" x2="62.0514" y2="-15.2373" gradientTransform="matrix(0.866 -0.5 0.5 0.866 5.1689 102.6251)">
			<stop  offset="0" style="stop-color:#4495D1;stop-opacity:0.3"/>
			<stop  offset="0.9062" style="stop-color:#4495D1;stop-opacity:0"/>
		</linearGradient>
		<path class="st4" d="M51.1,58c16.6-9.6,23.7-28.5,15.7-42.3C59.1,2.4,38.6-1.6,22.1,7.9C5.6,17.4-1.1,37.2,6.6,50.5
			C14.5,64.2,34.4,67.6,51.1,58z"/>
		
			<linearGradient id="SVGID_5_" gradientUnits="userSpaceOnUse" x1="62.0514" y1="-72.8399" x2="62.0514" y2="4.0135" gradientTransform="matrix(0.866 -0.5 0.5 0.866 5.1689 102.6251)">
			<stop  offset="0" style="stop-color:#2092D1;stop-opacity:0.65"/>
			<stop  offset="0.5558" style="stop-color:#2092D1;stop-opacity:0"/>
		</linearGradient>
		<path class="st5" d="M51.1,58c16.6-9.6,23.7-28.5,15.7-42.3C59.1,2.4,38.6-1.6,22.1,7.9C5.6,17.4-1.1,37.2,6.6,50.5
			C14.5,64.2,34.4,67.6,51.1,58z"/>
		<path class="st6" d="M31.4,43c1.1,0.2,2.4,0.7,3.4,1.2c3.1,1.7,4.3,4.4,3.9,7.6c-0.3,3.1-2.4,5.9-5.5,7.3
			c-1.9,0.9-4.1,1.4-6.7,1.6c-3.7,0.3-7.9,0-11.9-0.7V30.8c3.2-0.5,6.8-1,10-1c3.4,0,5.8,0.3,8.1,1.4c2.7,1.3,3.7,3.5,3.7,5.3
			C36.4,38.4,35.3,41.3,31.4,43z M24.1,57c2.4,0,3.6-0.5,4.7-1.1c1.9-1.1,3.1-3.4,2.8-5.8c-0.2-2.3-1.8-3.8-4-4.5
			c-1.7-0.5-4-0.5-6.3,0.2v11C22,57,23.1,57,24.1,57z M21.2,43.4c3.5-0.3,5.2-1,6.6-1.9c1.6-1,2.3-2.5,2.4-3.8
			c0.1-1.6-0.9-3.3-3.7-3.9c-1.5-0.3-3.5-0.3-5.3-0.1L21.2,43.4z M66.9,34.1c0.3-0.1,0.8-0.1,1.1-0.1c1.9,0.3,2.6,3.5,2.4,7.9
			c-0.2,5.1-2.2,13.5-5.9,13.6c-0.3,0-0.6,0-0.9-0.1l-3.7-25l-6.8,0l2.7,16.4c-0.5,3.3-1.9,8-4.8,8.5c-0.3,0-1,0.1-1.4,0l-3.7-24.9
			H39l5,30.1c1.7,0.4,3.5,0.5,5.1,0.1c3.7-0.8,6.6-4.5,7.5-8.4l1.4,8.3c1.6,0.4,2.6,0.4,4,0.3c3.8-0.1,6.8-2.1,8.8-5.3
			c3.2-4.9,4.5-11.8,4.5-17.6c0-4.7-1.4-8.2-5-8.2c-1.8,0-3.7,1.5-3.8,4c0,0.1,0,0.2,0.1,0.2C66.8,34.1,66.8,34.1,66.9,34.1z"/>
		<path class="st7" d="M29.4,41c1.1,0.2,2.4,0.7,3.4,1.2c3.1,1.7,4.3,4.4,3.9,7.6c-0.3,3.1-2.4,5.9-5.5,7.3
			c-1.9,0.9-4.1,1.4-6.7,1.6c-3.7,0.3-7.9,0-11.9-0.7V28.9c3.2-0.5,6.8-1,10-1c3.4,0,5.8,0.3,8.1,1.4c2.7,1.3,3.7,3.5,3.7,5.3
			C34.4,36.4,33.4,39.3,29.4,41z M22.1,55.1c2.4,0,3.6-0.5,4.7-1.1c1.9-1.1,3.1-3.4,2.8-5.8c-0.2-2.3-1.8-3.8-4-4.5
			c-1.7-0.5-4-0.5-6.3,0.2v11C20,55,21.2,55.1,22.1,55.1z M19.2,41.4c3.5-0.3,5.2-1,6.6-1.9c1.6-1,2.3-2.5,2.4-3.8
			c0.1-1.6-0.9-3.3-3.7-3.9c-1.5-0.3-3.5-0.3-5.3-0.1L19.2,41.4z M64.9,32.1c0.3-0.1,0.8-0.1,1.1-0.1c1.9,0.3,2.6,3.5,2.4,7.9
			c-0.2,5.1-2.2,13.5-5.9,13.6c-0.3,0-0.6,0-0.9-0.1l-3.7-25l-6.8,0l2.7,16.4c-0.5,3.3-1.9,8-4.8,8.5c-0.3,0-1,0.1-1.4,0l-3.7-24.9
			l-6.8,0l5,30.1c1.7,0.4,3.5,0.5,5.1,0.1c3.7-0.8,6.6-4.5,7.5-8.4l1.4,8.3c1.6,0.4,2.6,0.4,4,0.3c3.8-0.1,6.8-2.1,8.8-5.3
			c3.2-4.9,4.5-11.8,4.5-17.6c0-4.7-1.4-8.2-5-8.2c-1.8,0-3.7,1.5-3.8,4c0,0.1,0,0.2,0.1,0.2C64.8,32.1,64.9,32.1,64.9,32.1z"/>
		<g>
			<defs>
				<path id="SVGID_6_" d="M29.4,41c1.1,0.2,2.4,0.7,3.4,1.2c3.1,1.7,4.3,4.4,3.9,7.6c-0.3,3.1-2.4,5.9-5.5,7.3
					c-1.9,0.9-4.1,1.4-6.7,1.6c-3.7,0.3-7.9,0-11.9-0.7V28.9c3.2-0.5,6.8-1,10-1c3.4,0,5.8,0.3,8.1,1.4c2.7,1.3,3.7,3.5,3.7,5.3
					C34.4,36.4,33.4,39.3,29.4,41z M22.1,55.1c2.4,0,3.6-0.5,4.7-1.1c1.9-1.1,3.1-3.4,2.8-5.8c-0.2-2.3-1.8-3.8-4-4.5
					c-1.7-0.5-4-0.5-6.3,0.2v11C20,55,21.2,55.1,22.1,55.1z M19.2,41.4c3.5-0.3,5.2-1,6.6-1.9c1.6-1,2.3-2.5,2.4-3.8
					c0.1-1.6-0.9-3.3-3.7-3.9c-1.5-0.3-3.5-0.3-5.3-0.1L19.2,41.4z M64.9,32.1c0.3-0.1,0.8-0.1,1.1-0.1c1.9,0.3,2.6,3.5,2.4,7.9
					c-0.2,5.1-2.2,13.5-5.9,13.6c-0.3,0-0.6,0-0.9-0.1l-3.7-25l-6.8,0l2.7,16.4c-0.5,3.3-1.9,8-4.8,8.5c-0.3,0-1,0.1-1.4,0
					l-3.7-24.9l-6.8,0l5,30.1c1.7,0.4,3.5,0.5,5.1,0.1c3.7-0.8,6.6-4.5,7.5-8.4l1.4,8.3c1.6,0.4,2.6,0.4,4,0.3
					c3.8-0.1,6.8-2.1,8.8-5.3c3.2-4.9,4.5-11.8,4.5-17.6c0-4.7-1.4-8.2-5-8.2c-1.8,0-3.7,1.5-3.8,4c0,0.1,0,0.2,0.1,0.2
					C64.8,32.1,64.9,32.1,64.9,32.1z"/>
			</defs>
			<clipPath id="SVGID_7_">
				<use xlink:href="#SVGID_6_"  style="overflow:visible;"/>
			</clipPath>
		</g>
	</g>
	<g>
		<path class="st8" d="M73.9,59c-1.1,0-2-0.8-2-2c0-1.1,0.8-2,2-2c1.1,0,1.9,0.9,1.9,2C75.8,58.1,75,59,73.9,59z M73.9,55.2
			c-0.9,0-1.6,0.7-1.6,1.7c0,1,0.7,1.7,1.6,1.7c0.9,0,1.6-0.7,1.6-1.7C75.5,56,74.8,55.2,73.9,55.2z M73.8,57.1c-0.1,0-0.2,0-0.3,0
			v1.2H73v-2.6c0.2,0,0.5,0,0.7,0c0.4,0,1,0.1,1,0.7c0,0.4-0.3,0.6-0.6,0.7c0.3,0.6,0.6,0.9,0.8,0.9c0,0,0.1,0,0.1,0l0,0
			c0,0,0,0,0,0c0,0.1-0.1,0.2-0.3,0.2C74.3,58.2,74,57.7,73.8,57.1z M73.7,55.9c-0.1,0-0.1,0-0.2,0v0.9c0.1,0,0.2,0,0.2,0
			c0.3,0,0.6-0.1,0.6-0.5C74.3,56,74,55.9,73.7,55.9z"/>
	</g>
</g>
</svg>
